<svg width="14" height="14" fill="none" xmlns="http://www.w3.org/2000/svg"><path fill-rule="evenodd" clip-rule="evenodd" d="M13.689 7.156c0-.467-.078-1.012-.156-1.4H7v2.722h3.733c-.155.855-.622 1.555-1.4 2.1v1.789h2.334c1.322-1.245 2.022-3.111 2.022-5.211z" fill="#4285F4"/><path fill-rule="evenodd" clip-rule="evenodd" d="M7 14c1.867 0 3.5-.622 4.667-1.711l-2.334-1.711c-.622.389-1.4.7-2.333.7-1.789 0-3.344-1.245-3.889-2.878H.778v1.711C1.867 12.444 4.278 14 7 14z" fill="#34A853"/><path fill-rule="evenodd" clip-rule="evenodd" d="M3.111 8.322A3.633 3.633 0 012.878 7c0-.467.078-.933.233-1.322v-1.79H.778C.31 4.823 0 5.912 0 7s.233 2.178.778 3.111L3.11 8.322z" fill="#FBBC05"/><path fill-rule="evenodd" clip-rule="evenodd" d="M7 2.8c1.011 0 1.944.389 2.645 1.011l2.022-2.022C10.5.7 8.867 0 7 0 4.278 0 1.867 1.556.778 3.889L3.11 5.678C3.656 4.044 5.211 2.8 7 2.8z" fill="#EA4335"/></svg>